<svg xmlns="http://www.w3.org/2000/svg" xmlns:xlink="http://www.w3.org/1999/xlink" width="32" height="32" viewBox="0 0 32 32">
  <defs>
    <clipPath id="clip-path">
      <rect id="Rectangle_2100" data-name="Rectangle 2100" width="32" height="32" transform="translate(0.453)" fill="none"/>
    </clipPath>
    <clipPath id="clip-path-3">
      <path id="Path_21371" data-name="Path 21371" d="M15.467,0A15.377,15.377,0,0,0,0,15.286,15.378,15.378,0,0,0,15.467,30.573,15.377,15.377,0,0,0,30.933,15.286,15.377,15.377,0,0,0,15.467,0Z" transform="translate(0 0)" fill="none"/>
    </clipPath>
    <clipPath id="clip-path-4">
      <rect id="Rectangle_2098" data-name="Rectangle 2098" width="5.923" height="3.422" fill="none"/>
    </clipPath>
    <clipPath id="clip-path-5">
      <rect id="Rectangle_2099" data-name="Rectangle 2099" width="3.537" height="3.653" fill="none"/>
    </clipPath>
  </defs>
  <g id="Group_2128" data-name="Group 2128" transform="translate(-0.453)">
    <g id="Group_1975" data-name="Group 1975" transform="translate(0)" clip-path="url(#clip-path)">
      <g id="Group_1966" data-name="Group 1966" transform="translate(0 0)">
        <g id="Mask_Group_1965" data-name="Mask Group 1965" clip-path="url(#clip-path)">
          <path id="Path_21353" data-name="Path 21353" d="M30.933,15.287A15.377,15.377,0,0,1,15.467,30.573,15.377,15.377,0,0,1,0,15.287,15.378,15.378,0,0,1,15.467,0,15.378,15.378,0,0,1,30.933,15.287" transform="translate(0.953 0.527)" fill="#fe9d2b" stroke="#01a3e2" stroke-width="1"/>
        </g>
      </g>
      <g id="Group_1974" data-name="Group 1974" transform="translate(0.953 0.527)">
        <g id="Group_1973" data-name="Group 1973" clip-path="url(#clip-path-3)">
          <rect id="Rectangle_2097" data-name="Rectangle 2097" width="5.923" height="3.944" transform="translate(13.029 19.991)" fill="#faac8d"/>
          <g id="Group_1969" data-name="Group 1969" transform="translate(13.029 19.991)" style="mix-blend-mode: multiply;isolation: isolate">
            <g id="Group_1968" data-name="Group 1968">
              <g id="Group_1967" data-name="Group 1967" clip-path="url(#clip-path-4)">
                <path id="Path_21354" data-name="Path 21354" d="M45.522,71.291a8.04,8.04,0,0,0,2.833.569,9.264,9.264,0,0,0,1.654-.158V68.438H44.085v2.04a4.971,4.971,0,0,0,1.437.813" transform="translate(-44.085 -68.438)" fill="#e0e1e3"/>
              </g>
            </g>
          </g>
          <path id="Path_21355" data-name="Path 21355" d="M74.975,41.74c.02-.145.27-.381.379-.461a.36.36,0,0,1,.559.236A2.991,2.991,0,0,1,76,42.17a2.857,2.857,0,0,1-.282,1.51,2.033,2.033,0,0,1-.7.77.252.252,0,0,1-.382-.2l.346-2.507" transform="translate(-52.573 -29.171)" fill="#faac8d"/>
          <path id="Path_21356" data-name="Path 21356" d="M75.037,43.184c.014-.1.193-.273.271-.33a.258.258,0,0,1,.4.169,2.149,2.149,0,0,1,.061.469,2.047,2.047,0,0,1-.2,1.081,1.459,1.459,0,0,1-.5.551.181.181,0,0,1-.273-.146l.248-1.794" transform="translate(-52.685 -30.3)" fill="#d5947b"/>
          <path id="Path_21357" data-name="Path 21357" d="M29.444,41.74c-.02-.145-.27-.381-.379-.461a.36.36,0,0,0-.559.236,3.009,3.009,0,0,0-.085.655,2.854,2.854,0,0,0,.282,1.51,2.036,2.036,0,0,0,.7.77.252.252,0,0,0,.382-.2l-.346-2.507" transform="translate(-20.015 -29.171)" fill="#faac8d"/>
          <path id="Path_21358" data-name="Path 21358" d="M30.316,43.184c-.014-.1-.193-.273-.271-.33a.258.258,0,0,0-.4.169,2.15,2.15,0,0,0-.061.469,2.047,2.047,0,0,0,.2,1.081,1.457,1.457,0,0,0,.5.551.181.181,0,0,0,.273-.146s-.247-1.792-.247-1.794" transform="translate(-20.836 -30.3)" fill="#d5947b"/>
          <path id="Path_21359" data-name="Path 21359" d="M44.966,23.555a9.829,9.829,0,0,1-1.077,4.754,9.514,9.514,0,0,1-2.833,3.052,4.777,4.777,0,0,1-3.007,1.312c-1.188-.1-2.114-1.1-2.982-1.879a10.218,10.218,0,0,1-2.778-4.068,9.3,9.3,0,0,1-.534-3.171c0-5.343,2.958-8.7,6.606-8.7s6.606,3.36,6.606,8.7" transform="translate(-22.369 -10.514)" fill="#faac8d"/>
          <path id="Path_21360" data-name="Path 21360" d="M30.735,83.424l-7.382-1.908H17.431l-7.382,1.908a6.277,6.277,0,0,0-3.8,5.218H34.536a6.277,6.277,0,0,0-3.8-5.218" transform="translate(-4.401 -57.705)" fill="#faac8d"/>
          <path id="Path_21361" data-name="Path 21361" d="M30.735,83.424l-7.382-1.908H17.431l-7.382,1.908a6.277,6.277,0,0,0-3.8,5.218H34.536a6.277,6.277,0,0,0-3.8-5.218" transform="translate(-4.401 -57.705)" fill="#fff"/>
          <path id="Path_21362" data-name="Path 21362" d="M37.77,13.751s2.216,3.256,7.789,3.632c0,0-.466-.209-1.015-1.628A18.72,18.72,0,0,0,48.663,18.3l.53,1.06s0-.541.5-.445c0,0,.423-4.246-1.351-6.333a2.681,2.681,0,0,1,1.4.5A5.97,5.97,0,0,0,46.192,10.5a2.11,2.11,0,0,1,1.9-.167A10.034,10.034,0,0,0,43.755,9.7s-5.327-.21-5.985,4.048" transform="translate(-26.607 -6.859)" fill="#2d1a10"/>
          <path id="Path_21363" data-name="Path 21363" d="M33.595,17.948l-2.629,4.814a4.647,4.647,0,0,0-.346-.373s-.135-6.614,3.569-7.866Z" transform="translate(-21.57 -10.281)" fill="#2d1a10"/>
          <path id="Path_21364" data-name="Path 21364" d="M30.735,84.593l-5.463-1.412-4.88,6.63-4.828-6.643-5.515,1.425a6.277,6.277,0,0,0-3.8,5.218H34.536a6.277,6.277,0,0,0-3.8-5.218" transform="translate(-4.401 -58.874)" fill="#313133"/>
          <path id="Path_21365" data-name="Path 21365" d="M48.672,94.539l-1.36,3.322h3.865l-1.326-3.322Z" transform="translate(-33.329 -66.924)" fill="#ac0720"/>
          <path id="Path_21366" data-name="Path 21366" d="M49.677,81.739l-1.731,2.3,1.2,1.452.589-.009.589-.01,1.155-1.49Z" transform="translate(-33.776 -57.863)" fill="#ae0721"/>
          <g id="Group_1972" data-name="Group 1972" transform="translate(14.17 23.971)" style="mix-blend-mode: multiply;isolation: isolate">
            <g id="Group_1971" data-name="Group 1971">
              <g id="Group_1970" data-name="Group 1970" clip-path="url(#clip-path-5)">
                <path id="Path_21367" data-name="Path 21367" d="M50.834,83.964c-.221.433-.634.925-1.193.8a.953.953,0,0,1-.71-1.216,12.7,12.7,0,0,1,.675-1.488l-1.66,2.2,1.2,1.452,1.179-.019,1.155-1.49-.489-.606a3.769,3.769,0,0,1-.16.362" transform="translate(-47.946 -82.064)" fill="#c7c9cb"/>
              </g>
            </g>
          </g>
          <path id="Path_21368" data-name="Path 21368" d="M33.4,89.81,28.57,83.167l-3.86,1L29.642,87.6l-1.267.552,2.28,1.661Z" transform="translate(-17.407 -58.873)" fill="#282628"/>
          <path id="Path_21369" data-name="Path 21369" d="M54.105,89.842,58.933,83.2l3.86,1L57.86,87.629l1.267.552-2.281,1.661Z" transform="translate(-38.115 -58.896)" fill="#282628"/>
          <path id="Path_21370" data-name="Path 21370" d="M34.254,78.741l2.9-1.342L40.1,78.617,43.053,77.4l3.093,1.342-4.374,2.894L40.1,79.27l-1.8,2.366Z" transform="translate(-24.131 -54.79)" fill="#dbdcde"/>
        </g>
      </g>
    </g>
  </g>
</svg>
